 <svg  version="1.0" xmlns="http://www.w3.org/2000/svg"  width="900.000000pt" height="900.000000pt" viewBox="0 0 900.000000 900.000000"  preserveAspectRatio="xMidYMid meet">  <g transform="translate(0.000000,900.000000) scale(0.100000,-0.100000)" fill="#12304f" stroke="none"> <path d="M4675 8754 c-49 -8 -117 -25 -150 -39 -33 -14 -68 -25 -78 -25 -18 0 -30 -5 -107 -44 -92 -48 -115 -60 -120 -65 -3 -4 -18 -12 -33 -20 -86 -45 -327 -279 -356 -348 -6 -11 -15 -24 -20 -28 -6 -3 -11 -13 -11 -21 0 -11 15 -14 61 -14 34 0 78 -5 98 -10 20 -6 104 -17 186 -24 l150 -14 35 25 c19 15 40 31 45 37 18 19 105 76 117 76 6 0 19 6 27 14 27 23 163 68 231 77 83 10 235 10 325 -1 72 -8 121 -24 210 -66 29 -13 55 -24 58 -24 17 0 168 -112 217 -160 105 -104 156 -182 236 -365 71 -163 71 -507 0 -645 -7 -14 -16 -36 -19 -50 -17 -70 -218 -279 -268 -280 -9 0 -22 -7 -30 -16 -11 -13 -31 -15 -128 -11 -64 3 -133 9 -154 12 -31 6 -43 3 -72 -19 -34 -26 -35 -30 -35 -91 0 -59 3 -67 45 -123 46 -62 87 -92 159 -118 127 -47 205 -55 298 -30 159 43 243 87 359 191 88 78 188 209 220 289 6 15 22 48 35 73 13 24 24 52 24 62 0 9 5 22 11 28 24 24 70 334 64 430 -8 131 -37 312 -62 388 -25 76 -71 177 -133 295 -92 173 -316 389 -515 495 -38 21 -79 44 -90 51 -11 8 -26 14 -35 14 -9 0 -33 9 -55 20 -22 11 -46 20 -55 20 -8 0 -40 9 -70 20 -30 11 -89 25 -130 31 -120 18 -382 19 -485 3z"/> <path d="M2550 8271 c-25 -5 -66 -20 -93 -34 -126 -70 -344 -262 -473 -419 -78 -94 -104 -127 -104 -133 0 -4 -19 -32 -43 -63 -24 -32 -46 -65 -49 -74 -4 -9 -37 -62 -74 -118 -74 -113 -83 -142 -84 -246 0 -66 -3 -76 -34 -120 -72 -101 -79 -121 -78 -220 2 -83 -1 -96 -28 -149 -28 -54 -30 -66 -30 -167 0 -102 -2 -111 -30 -161 -35 -62 -41 -147 -14 -199 17 -32 15 -75 -5 -178 -13 -61 -6 -134 14 -165 7 -11 36 -45 64 -75 61 -64 81 -104 92 -180 13 -92 58 -332 73 -390 48 -181 69 -249 86 -285 11 -23 20 -48 20 -56 0 -8 7 -23 15 -33 8 -11 15 -28 15 -38 0 -15 38 -98 72 -158 4 -8 11 -22 14 -30 15 -41 71 -150 96 -188 15 -24 28 -47 28 -51 0 -4 14 -27 30 -49 17 -23 30 -44 30 -47 0 -10 149 -205 214 -280 80 -94 248 -256 261 -252 11 4 14 10 67 122 41 86 54 106 149 225 98 122 233 248 366 339 71 49 71 48 5 135 -25 32 -55 77 -68 100 -38 69 -94 184 -94 194 0 5 -7 15 -15 22 -8 7 -15 26 -15 42 0 16 -6 41 -14 56 -22 43 -49 304 -42 402 13 174 29 296 42 322 8 15 14 43 14 62 0 19 4 37 9 41 5 3 17 31 26 63 30 104 93 217 120 217 16 0 19 -11 22 -110 2 -60 10 -132 17 -160 8 -27 17 -69 20 -93 9 -60 32 -92 65 -92 57 0 200 165 276 317 27 54 55 110 62 125 7 14 13 35 13 45 0 10 4 23 9 29 5 5 27 63 49 129 22 66 46 122 54 126 7 3 28 13 46 22 19 9 42 17 52 17 10 0 45 14 78 30 34 16 69 30 80 30 10 0 27 7 38 15 10 8 26 15 35 15 51 1 448 191 567 271 24 16 45 29 47 29 10 0 250 172 265 190 3 4 30 26 60 49 125 97 237 219 226 246 -8 21 -33 18 -91 -10 -27 -14 -55 -25 -61 -25 -6 0 -17 -7 -24 -15 -16 -19 -60 -20 -60 -1 0 15 91 103 175 169 27 21 63 59 78 83 l29 43 -33 50 c-68 104 -281 228 -559 327 -52 19 -103 34 -113 34 -10 0 -28 6 -40 12 -12 7 -56 18 -97 25 -41 8 -97 18 -125 23 -178 33 -473 47 -653 30 -118 -11 -125 -10 -158 9 -19 12 -43 21 -53 21 -10 0 -24 7 -31 15 -7 8 -19 15 -26 15 -8 0 -42 13 -76 29 -93 42 -135 56 -293 96 -55 14 -120 31 -145 39 -55 18 -199 27 -260 17z m1321 -621 c-10 -36 -23 -78 -29 -93 -7 -16 -12 -72 -12 -126 0 -85 4 -109 34 -192 50 -141 88 -200 168 -262 26 -20 48 -42 48 -47 0 -15 -81 -12 -99 3 -9 8 -36 19 -61 26 -62 17 -159 116 -184 186 -43 123 -49 170 -33 253 13 66 24 106 44 157 18 48 123 180 133 169 4 -5 0 -38 -9 -74z m679 33 c33 -23 46 -40 69 -91 19 -40 19 -44 3 -88 -32 -88 -130 -135 -206 -99 -20 9 -49 33 -66 51 -25 29 -30 43 -30 85 0 56 32 113 80 143 34 21 119 21 150 -1z"/> <path d="M4510 6604 c-47 -24 -92 -44 -100 -44 -8 -1 -46 -18 -85 -38 l-70 -37 -3 -219 c-1 -141 -6 -224 -13 -233 -6 -7 -26 -13 -43 -13 -61 0 -103 -75 -92 -164 8 -60 37 -106 66 -106 20 0 45 -34 36 -49 -3 -5 -19 -11 -36 -15 -24 -4 -35 -15 -50 -48 -25 -56 -25 -108 1 -162 17 -37 28 -47 72 -63 l52 -20 5 -269 5 -269 190 0 190 0 5 265 5 265 44 22 c25 13 57 35 73 50 26 24 28 33 28 99 0 51 -4 75 -15 84 -8 7 -15 18 -15 25 0 15 -22 25 -55 25 -47 0 -42 47 6 57 16 3 41 19 54 35 22 26 25 39 25 103 0 69 -2 75 -31 104 -18 18 -41 31 -55 31 -14 0 -34 5 -45 10 -18 10 -19 24 -19 315 l0 305 -22 -1 c-13 0 -61 -20 -108 -45z"/> <path d="M4409 4755 c-3 -2 -50 -11 -105 -20 -211 -32 -272 -43 -292 -54 -11 -6 -33 -11 -49 -11 -15 0 -40 -6 -55 -14 -15 -8 -42 -17 -60 -21 -39 -8 -151 -49 -191 -70 -16 -8 -35 -15 -43 -15 -8 0 -40 -13 -71 -30 -31 -16 -61 -30 -68 -30 -7 0 -18 -7 -25 -15 -7 -8 -20 -15 -30 -15 -9 0 -35 -12 -57 -27 -58 -41 -76 -52 -100 -63 -12 -5 -57 -35 -99 -67 -42 -32 -88 -67 -103 -78 -14 -11 -73 -67 -131 -125 -101 -101 -183 -210 -223 -295 -10 -22 -23 -48 -29 -59 -29 -54 -41 -127 -42 -251 -1 -130 3 -150 43 -235 48 -104 157 -206 281 -263 116 -54 322 -90 367 -64 66 37 163 100 163 106 0 3 -20 14 -43 24 -23 10 -49 22 -57 27 -8 5 -35 19 -59 32 -24 12 -75 57 -115 99 -132 141 -136 247 -15 425 73 106 238 256 364 330 27 16 59 34 70 41 39 23 168 83 179 83 6 0 20 7 30 15 11 8 31 15 46 15 14 0 34 6 45 13 11 7 45 21 75 30 30 9 77 24 103 32 26 8 69 15 96 15 27 0 68 7 91 15 59 21 334 21 370 0 14 -8 40 -14 58 -15 71 0 202 -89 249 -168 25 -44 27 -55 27 -158 0 -87 -4 -116 -17 -134 -9 -14 -17 -31 -17 -40 0 -23 -108 -182 -163 -239 l-47 -49 0 -370 c0 -302 3 -372 14 -381 7 -6 39 -18 69 -26 31 -8 89 -30 129 -49 40 -18 84 -38 98 -44 14 -6 48 -25 75 -42 28 -16 56 -33 64 -37 63 -30 231 -160 350 -271 19 -18 58 -52 85 -75 28 -23 89 -78 136 -121 47 -43 112 -101 145 -129 33 -27 62 -53 65 -56 18 -21 149 -131 158 -131 5 0 16 -7 23 -16 16 -19 166 -134 175 -134 4 0 23 -13 43 -29 20 -15 59 -41 86 -56 28 -15 85 -47 127 -70 80 -45 158 -82 218 -105 19 -8 44 -20 55 -27 11 -7 31 -13 45 -13 14 0 30 -4 36 -10 5 -5 30 -14 54 -19 25 -5 83 -21 129 -35 81 -25 179 -34 215 -20 33 13 18 50 -36 87 -107 75 -213 191 -298 327 -19 30 -41 64 -48 75 -6 11 -15 27 -18 35 -4 8 -15 33 -25 55 -52 116 -69 160 -69 179 0 12 -5 27 -11 33 -6 6 -17 37 -24 70 -8 32 -23 91 -34 132 -12 41 -21 85 -21 97 0 12 -7 38 -15 57 -8 20 -15 61 -15 91 l0 55 106 103 c90 87 194 206 194 221 0 2 20 35 45 73 25 37 45 73 45 80 0 6 7 17 15 24 8 7 15 20 15 30 0 10 6 23 14 29 8 7 17 24 21 38 3 15 17 50 30 78 40 87 81 209 106 318 5 20 14 56 19 80 6 23 15 76 20 118 4 41 14 102 20 135 23 115 -4 434 -36 434 -6 0 -19 -21 -28 -47 -33 -95 -140 -282 -181 -318 -6 -5 -35 -38 -65 -73 -55 -66 -225 -213 -320 -277 -70 -48 -223 -140 -291 -176 -13 -6 -31 -16 -39 -21 -8 -4 -22 -11 -30 -14 -8 -2 -42 -17 -75 -33 -74 -34 -119 -51 -165 -61 -19 -4 -71 -19 -115 -34 -44 -14 -95 -26 -115 -26 -19 0 -66 -7 -105 -15 -93 -20 -395 -20 -485 0 -36 8 -83 14 -105 15 -21 0 -57 6 -80 14 -22 8 -51 17 -65 20 -14 3 -34 12 -45 19 -18 14 -13 20 91 123 60 60 118 121 129 135 34 43 65 88 65 93 0 3 13 24 28 48 27 40 42 75 72 158 50 142 52 356 3 452 -7 15 -13 36 -13 46 0 11 -7 25 -15 32 -8 7 -15 20 -15 29 0 9 -20 44 -44 76 -79 109 -172 185 -301 248 -127 62 -166 74 -390 112 -85 14 -236 21 -246 10z"/> <path d="M4262 4118 c-9 -9 -12 -369 -12 -1558 l0 -1545 -42 -20 c-51 -25 -66 -60 -49 -117 10 -31 18 -40 41 -45 36 -7 58 -30 44 -47 -63 -85 -104 -179 -104 -237 0 -143 131 -306 260 -324 155 -21 277 56 340 214 40 102 15 211 -72 323 -33 42 -31 53 9 63 45 11 73 44 73 84 -1 45 -14 62 -68 90 l-42 21 0 1555 0 1555 -183 0 c-129 0 -187 -4 -195 -12z"/> <path d="M3555 3837 c-142 -103 -231 -192 -292 -294 -28 -46 -33 -63 -33 -119 l0 -64 68 -69 c43 -44 86 -77 122 -93 166 -75 199 -88 222 -88 14 0 31 -6 38 -14 6 -8 21 -16 33 -18 29 -4 36 -45 10 -54 -27 -10 -151 -70 -209 -102 -121 -67 -281 -203 -341 -291 -21 -31 -41 -57 -45 -59 -11 -5 -56 -105 -83 -185 -35 -103 -35 -247 0 -336 37 -94 68 -143 129 -199 52 -47 85 -66 181 -105 108 -44 227 -47 308 -8 24 11 48 21 53 21 14 1 77 60 113 108 31 40 33 48 35 126 1 77 -1 87 -24 111 -37 41 -66 48 -101 28 -22 -13 -29 -25 -29 -48 -1 -16 -9 -52 -19 -80 -55 -158 -300 -113 -376 68 -8 20 -15 66 -15 103 0 54 6 79 30 129 48 99 111 166 230 245 25 16 50 34 57 40 7 5 18 10 24 10 7 0 20 6 28 14 9 7 39 21 66 31 28 10 59 25 70 32 11 7 29 13 40 13 11 0 29 6 40 13 11 8 36 17 55 21 64 12 175 49 190 63 13 12 15 65 16 351 0 351 -2 372 -43 395 -11 7 -42 24 -69 40 -27 15 -62 36 -79 47 -16 11 -46 28 -65 39 -19 10 -52 33 -74 50 -21 17 -43 31 -49 31 -5 0 -33 19 -61 43 -28 24 -59 46 -68 50 -10 3 -18 11 -18 17 0 16 -33 10 -65 -13z"/> </g> </svg> 